<?xml version="1.0" encoding="utf-8"?>
<!-- Generator: Adobe Illustrator 19.1.0, SVG Export Plug-In . SVG Version: 6.00 Build 0)  -->
<svg version="1.1" id="Layer_1" xmlns="http://www.w3.org/2000/svg" xmlns:xlink="http://www.w3.org/1999/xlink" x="0px" y="0px"
	 viewBox="0 0 211.4 43.6" style="enable-background:new 0 0 211.4 43.6;" xml:space="preserve">
<style type="text/css">
	.st0{fill:#34455E;}
</style>
<path class="st0" d="M18.4,24.2l-5-8.3c-1.6,1-1.9,1.2-3.4,2.1l5.1,8.8c2.4,4,2.1,6.8,2.1,8.2c0,1.5-0.5,2.6-1.6,3.5
	c-1.1,0.9-2.6,1.3-4.7,1.3c-2.1,0-3.7-0.4-4.7-1.3c-1.1-0.9-1.6-2-1.6-3.6v-5.7H0v5.4c0,6,3.6,9,10.8,9c7.2,0,10.6-3,10.8-9
	C21.8,30.7,19.9,26.8,18.4,24.2z"/>
<path class="st0" d="M3.3,19.4l5,8.3c1.6-1,1.9-1.2,3.4-2.1l-5.1-8.8c-2.4-4-2.1-6.8-2.1-8.2C4.5,7.1,5,6,6.1,5.1
	c1.1-0.9,2.6-1.3,4.7-1.3c2.1,0,3.7,0.4,4.7,1.3c1.1,0.9,1.6,2,1.6,3.6v5.7h4.5V9c0-6-3.6-9-10.8-9C3.6,0,0.2,3,0,9
	C-0.1,12.9,1.7,16.8,3.3,19.4z"/>
<path class="st0" d="M43.7,42.6h-4.5V27.7L28.7,1h4.7l8.1,21.4L49.5,1h4.7L43.7,27.8V42.6z"/>
<path class="st0" d="M66.8,42.6h-4.5V1h4.5l13.9,32V1h4.5v41.6h-4.5l-13.9-32V42.6z"/>
<path class="st0" d="M113.6,34.6v-3.5h4.5v3.5c0,2.9-0.9,5.1-2.6,6.6c-1.8,1.6-4.4,2.3-7.9,2.3c-3.5,0-6.1-0.8-7.9-2.3
	c-1.8-1.6-2.7-3.8-2.7-6.6V9c0-2.9,0.9-5.1,2.6-6.6c1.7-1.6,4.4-2.3,7.9-2.3c3.5,0,6.1,0.8,7.9,2.3c1.8,1.6,2.7,3.8,2.7,6.6v6.1
	h-4.5V9c0-3.4-2-5.1-6.1-5.1c-4.1,0-6.1,1.7-6.1,5.1v25.6c0,3.4,2,5.1,6.1,5.1C111.6,39.7,113.6,38,113.6,34.6z"/>
<path class="st0" d="M148.2,42.6h-18.9V1h18.2v3.8h-13.8v14.7H145v3.8h-11.2v15.4h14.4V42.6z"/>
<path class="st0" d="M163.5,42.6h-4.5V1h9.7c3.3,0,5.9,0.8,7.6,2.4c1.7,1.6,2.6,3.8,2.6,6.6v9c0,4.4-1.9,7.1-5.6,8.3l7.9,15.4h-4.9
	l-7.5-14.7h-5.2V42.6z M174.4,18.9v-9c0-1.6-0.5-2.9-1.5-3.8c-1-0.9-2.4-1.3-4.2-1.3h-5.2v19.2h5.2
	C172.5,24.1,174.4,22.4,174.4,18.9z"/>
<path class="st0" d="M200.8,42.6h-4.5V27.7L185.8,1h4.7l8.1,21.4L206.7,1h4.7l-10.6,26.8V42.6z"/>
</svg>
